<svg xmlns="http://www.w3.org/2000/svg" version="1.1" xmlns:xlink="http://www.w3.org/1999/xlink" width="1723.57" height="1723.57"><svg xmlns="http://www.w3.org/2000/svg" version="1.1" xmlns:xlink="http://www.w3.org/1999/xlink" width="1723.57" height="1723.57"><svg id="Capa_1" xmlns="http://www.w3.org/2000/svg" version="1.1" viewBox="0 0 1723.57 1723.57">
  <!-- Generator: Adobe Illustrator 30.1.0, SVG Export Plug-In . SVG Version: 2.1.1 Build 136)  -->
  <path d="M0,9.32c285.32,166.88,570.65,333.76,855.97,500.62C1145.16,343.06,1434.36,176.18,1723.57,9.32v1205.76l-259.78,145.04c.29-298.02.58-596.06.87-894.08l-591.84,353.72C581.89,643.02,290.96,466.29,0,289.55V9.32h0Z"></path>
  <path d="M861.76,1255.16c81.54-50.05,163.06-100.11,244.6-150.16v-300.64c-84.38,48.19-168.76,96.38-253.16,144.57-158.61-91.58-317.24-183.15-475.85-274.73v301.28c161.47,93.23,322.94,186.44,484.39,279.67h.02Z"></path>
  <path d="M269.03,912.95c-89.68-51.77-179.35-103.56-269.03-155.32v-301.28c89.68,51.79,179.35,103.58,269.03,155.37v301.24h0Z"></path>
  <path d="M0,1218.01c287.74,165.41,575.5,330.83,863.24,496.24,81.05-51.86,162.1-103.69,243.15-155.55v-292.57c-81.54,52.01-163.06,104.03-244.6,156.04C574.52,1255.79,287.27,1089.37,0,922.98v295.03h0Z"></path>
</svg></svg><style>@media (prefers-color-scheme: light) { :root { filter: none; } }
@media (prefers-color-scheme: dark) { :root { filter: none; } }
</style></svg>