<?xml version="1.0" encoding="UTF-8"?>
<svg id="Capa_1" data-name="Capa 1" xmlns="http://www.w3.org/2000/svg" xmlns:xlink="http://www.w3.org/1999/xlink" viewBox="0 0 1723.57 1723.57">
  <defs>
    <style>
      .cls-1 {
        fill: url(#Degradado_sin_nombre_94-3);
      }

      .cls-2 {
        fill: url(#Degradado_sin_nombre_94-2);
      }

      .cls-3 {
        fill: url(#Degradado_sin_nombre_115);
      }

      .cls-4 {
        fill: url(#Degradado_sin_nombre_94);
      }
    </style>
    <linearGradient id="Degradado_sin_nombre_94" data-name="Degradado sin nombre 94" x1="510.3" y1="778.78" x2="1281.39" y2="778.78" gradientUnits="userSpaceOnUse">
      <stop offset="0" stop-color="#fff"/>
      <stop offset=".1" stop-color="#fefdfa"/>
      <stop offset=".21" stop-color="#fdf9ed"/>
      <stop offset=".33" stop-color="#fcf2d6"/>
      <stop offset=".45" stop-color="#fae9b7"/>
      <stop offset=".57" stop-color="#f7dd8f"/>
      <stop offset=".7" stop-color="#f4ce5e"/>
      <stop offset=".83" stop-color="#f0bd24"/>
      <stop offset=".87" stop-color="#efb812"/>
      <stop offset=".99" stop-color="#efb812"/>
    </linearGradient>
    <linearGradient id="Degradado_sin_nombre_94-2" data-name="Degradado sin nombre 94" x1="679.13" y1="904.04" x2="1005.28" y2="904.04" xlink:href="#Degradado_sin_nombre_94"/>
    <linearGradient id="Degradado_sin_nombre_115" data-name="Degradado sin nombre 115" x1="510.3" y1="778.75" x2="630.66" y2="778.75" gradientUnits="userSpaceOnUse">
      <stop offset="0" stop-color="#fff"/>
      <stop offset="1" stop-color="#fff"/>
    </linearGradient>
    <linearGradient id="Degradado_sin_nombre_94-3" data-name="Degradado sin nombre 94" y1="1062.38" x2="1005.28" y2="1062.38" xlink:href="#Degradado_sin_nombre_94"/>
  </defs>
  <circle cx="861.78" cy="861.78" r="861.78"/>
  <path class="cls-4" d="M510.3,476.62c127.65,74.66,255.3,149.32,382.95,223.97,129.38-74.66,258.76-149.32,388.15-223.97v539.44c-38.74,21.63-77.48,43.26-116.22,64.89.13-133.33.26-266.67.39-400-88.26,52.75-176.52,105.5-264.78,158.25-130.16-79.07-260.32-158.14-390.49-237.21v-125.37Z"/>
  <path class="cls-2" d="M895.84,1033.99c36.48-22.39,72.95-44.79,109.43-67.18v-134.5c-37.75,21.56-75.5,43.12-113.26,64.68-70.96-40.97-141.93-81.94-212.89-122.91v134.79c72.24,41.71,144.48,83.41,216.71,125.12Z"/>
  <path class="cls-3" d="M630.66,880.89c-40.12-23.16-80.24-46.33-120.36-69.49v-134.79c40.12,23.17,80.24,46.34,120.36,69.51v134.77Z"/>
  <path class="cls-1" d="M510.3,1017.37c128.73,74,257.47,148.01,386.2,222.01,36.26-23.2,72.52-46.39,108.78-69.59v-130.89c-36.48,23.27-72.95,46.54-109.43,69.81-128.52-74.44-257.03-148.89-385.55-223.33v131.99Z"/>
</svg>